<svg width="643" height="390" viewBox="0 0 643 390" fill="none" xmlns="http://www.w3.org/2000/svg">
<path d="M358.479 38.8906L353.757 43.3496L359.864 45.5605L506.264 98.5518L423.521 158.609L419.435 161.576L423.259 164.875L517.779 246.424L368.453 368.389L224.642 256.95L260.715 140.712L370.002 97.1045L375.883 94.7578L371.237 90.4551L319.969 42.9639L385.443 13.4336L358.479 38.8906Z" fill="#5AD8CC" stroke="white" stroke-width="8"/>
<mask id="path-2-outside-1_100_112" maskUnits="userSpaceOnUse" x="0" y="172" width="643" height="218" fill="black">
<rect fill="white" y="172" width="643" height="218"/>
<path d="M280 246H324V277H635V382H8V180H280V246Z"/>
</mask>
<path d="M280 246H324V277H635V382H8V180H280V246Z" fill="black"/>
<path d="M280 246H272V254H280V246ZM324 246H332V238H324V246ZM324 277H316V285H324V277ZM635 277H643V269H635V277ZM635 382V390H643V382H635ZM8 382H0V390H8V382ZM8 180V172H0V180H8ZM280 180H288V172H280V180ZM280 246V254H324V246V238H280V246ZM324 246H316V277H324H332V246H324ZM324 277V285H635V277V269H324V277ZM635 277H627V382H635H643V277H635ZM635 382V374H8V382V390H635V382ZM8 382H16V180H8H0V382H8ZM8 180V188H280V180V172H8V180ZM280 180H272V246H280H288V180H280Z" fill="white" mask="url(#path-2-outside-1_100_112)"/>
<path d="M86.6973 184.07V214.303H42.2324V217.419H75.5811V228.535H86.6973V269.884H75.5811V281H12V250.768H56.4648V247.651H23.1162V236.535H12V195.187H23.1162V184.07H86.6973ZM153.38 184.07V195.187H164.496V269.884H153.38V281H100.915V269.884H89.7988V195.187H100.915V184.07H153.38ZM197.83 184.07V250.768H212.062V184.07H242.295V269.884H231.179V281H178.714V269.884H167.598V184.07H197.83ZM275.629 184.07V250.768H320.094V281H256.513V269.884H245.396V184.07H275.629ZM120.031 250.768H134.264V214.303H120.031V250.768Z" fill="white" stroke="black" stroke-width="8"/>
<mask id="path-5-outside-2_100_112" maskUnits="userSpaceOnUse" x="8" y="277.07" width="628" height="105" fill="black">
<rect fill="white" x="8" y="277.07" width="628" height="105"/>
<path d="M38.2324 340.651V374H16V285.07H71.581V296.187H82.6972V329.535H71.581V340.651H38.2324ZM38.2324 307.303V318.419H60.4648V307.303H38.2324Z"/>
<path d="M116.031 340.651V374H93.799V285.07H116.031V318.419H138.264V285.07H160.496V374H138.264V340.651H116.031Z"/>
<path d="M171.598 307.303V285.07H238.295V307.303H216.063V351.768H238.295V374H171.598V351.768H193.83V307.303H171.598Z"/>
<path d="M249.397 329.535V296.187H260.513V285.07H316.094V307.303H271.629V318.419H304.978V329.535H316.094V362.884H304.978V374H249.397V351.768H293.862V340.651H260.513V329.535H249.397Z"/>
<path d="M349.428 340.651V374H327.196V285.07H349.428V318.419H371.661V285.07H393.893V374H371.661V340.651H349.428Z"/>
<path d="M404.995 307.303V285.07H471.692V307.303H449.46V351.768H471.692V374H404.995V351.768H427.227V307.303H404.995Z"/>
<path d="M516.142 340.651V329.535H505.026V374H482.794V285.07H505.026V296.187H516.142V307.303H527.259V285.07H549.491V374H527.259V340.651H516.142Z"/>
<path d="M571.709 374V362.884H560.593V296.187H571.709V285.07H627.29V307.303H582.825V351.768H605.058V340.651H593.941V318.419H627.29V374H571.709Z"/>
</mask>
<path d="M38.2324 340.651V374H16V285.07H71.581V296.187H82.6972V329.535H71.581V340.651H38.2324ZM38.2324 307.303V318.419H60.4648V307.303H38.2324Z" fill="white"/>
<path d="M116.031 340.651V374H93.799V285.07H116.031V318.419H138.264V285.07H160.496V374H138.264V340.651H116.031Z" fill="white"/>
<path d="M171.598 307.303V285.07H238.295V307.303H216.063V351.768H238.295V374H171.598V351.768H193.83V307.303H171.598Z" fill="white"/>
<path d="M249.397 329.535V296.187H260.513V285.07H316.094V307.303H271.629V318.419H304.978V329.535H316.094V362.884H304.978V374H249.397V351.768H293.862V340.651H260.513V329.535H249.397Z" fill="white"/>
<path d="M349.428 340.651V374H327.196V285.07H349.428V318.419H371.661V285.07H393.893V374H371.661V340.651H349.428Z" fill="white"/>
<path d="M404.995 307.303V285.07H471.692V307.303H449.46V351.768H471.692V374H404.995V351.768H427.227V307.303H404.995Z" fill="white"/>
<path d="M516.142 340.651V329.535H505.026V374H482.794V285.07H505.026V296.187H516.142V307.303H527.259V285.07H549.491V374H527.259V340.651H516.142Z" fill="white"/>
<path d="M571.709 374V362.884H560.593V296.187H571.709V285.07H627.29V307.303H582.825V351.768H605.058V340.651H593.941V318.419H627.29V374H571.709Z" fill="white"/>
<path d="M38.2324 340.651V374H16V285.07H71.581V296.187H82.6972V329.535H71.581V340.651H38.2324ZM38.2324 307.303V318.419H60.4648V307.303H38.2324Z" stroke="black" stroke-width="16" mask="url(#path-5-outside-2_100_112)"/>
<path d="M116.031 340.651V374H93.799V285.07H116.031V318.419H138.264V285.07H160.496V374H138.264V340.651H116.031Z" stroke="black" stroke-width="16" mask="url(#path-5-outside-2_100_112)"/>
<path d="M171.598 307.303V285.07H238.295V307.303H216.063V351.768H238.295V374H171.598V351.768H193.83V307.303H171.598Z" stroke="black" stroke-width="16" mask="url(#path-5-outside-2_100_112)"/>
<path d="M249.397 329.535V296.187H260.513V285.07H316.094V307.303H271.629V318.419H304.978V329.535H316.094V362.884H304.978V374H249.397V351.768H293.862V340.651H260.513V329.535H249.397Z" stroke="black" stroke-width="16" mask="url(#path-5-outside-2_100_112)"/>
<path d="M349.428 340.651V374H327.196V285.07H349.428V318.419H371.661V285.07H393.893V374H371.661V340.651H349.428Z" stroke="black" stroke-width="16" mask="url(#path-5-outside-2_100_112)"/>
<path d="M404.995 307.303V285.07H471.692V307.303H449.46V351.768H471.692V374H404.995V351.768H427.227V307.303H404.995Z" stroke="black" stroke-width="16" mask="url(#path-5-outside-2_100_112)"/>
<path d="M516.142 340.651V329.535H505.026V374H482.794V285.07H505.026V296.187H516.142V307.303H527.259V285.07H549.491V374H527.259V340.651H516.142Z" stroke="black" stroke-width="16" mask="url(#path-5-outside-2_100_112)"/>
<path d="M571.709 374V362.884H560.593V296.187H571.709V285.07H627.29V307.303H582.825V351.768H605.058V340.651H593.941V318.419H627.29V374H571.709Z" stroke="black" stroke-width="16" mask="url(#path-5-outside-2_100_112)"/>
</svg>
