<svg width="717" height="298" viewBox="0 0 717 298" fill="none" xmlns="http://www.w3.org/2000/svg">
<rect x="46" y="71" width="625" height="156" fill="#3A3A3A"/>
<path d="M46 36L671 0V71L46 70.4191V36Z" fill="white"/>
<path d="M46 47L671 23V71H46V47Z" fill="#3A3A3A"/>
<path d="M46 227H671V273L46 255V227Z" fill="white"/>
<path d="M46 227H671V263L46 247V227Z" fill="#3A3A3A"/>
<path d="M671 71H717L711 227H671V71Z" fill="white"/>
<path d="M671 71H703L699 227H671V71Z" fill="#3A3A3A"/>
<path d="M12 71H46V227H12V71Z" fill="white"/>
<path d="M18 71H46V227H18V71Z" fill="#3A3A3A"/>
<path d="M46 71V36L12 71H46Z" fill="white"/>
<path d="M46 71V47L18 71H46Z" fill="#3A3A3A"/>
<path d="M671 71V0L717 71H671Z" fill="white"/>
<path d="M671 71V23L703 71H671Z" fill="#3A3A3A"/>
<path d="M46 227H12L46 255V227Z" fill="white"/>
<path d="M46 227L18 227L46 247V227Z" fill="#3A3A3A"/>
<path d="M671 227L711 227L671 273L671 227Z" fill="white"/>
<path d="M671 227L699 227L671 263L671 227Z" fill="#3A3A3A"/>
</svg>
