<?xml version="1.0" encoding="UTF-8" standalone="no"?>
<svg
   width="717"
   height="298"
   viewBox="0 0 717 298"
   fill="none"
   version="1.1"
   id="svg249"
   sodipodi:docname="textbox.svg"
   inkscape:version="1.2.2 (732a01da63, 2022-12-09)"
   xmlns:inkscape="http://www.inkscape.org/namespaces/inkscape"
   xmlns:sodipodi="http://sodipodi.sourceforge.net/DTD/sodipodi-0.dtd"
   xmlns="http://www.w3.org/2000/svg"
   xmlns:svg="http://www.w3.org/2000/svg">
  <defs
     id="defs253" />
  <sodipodi:namedview
     id="namedview251"
     pagecolor="#505050"
     bordercolor="#eeeeee"
     borderopacity="1"
     inkscape:showpageshadow="0"
     inkscape:pageopacity="0"
     inkscape:pagecheckerboard="0"
     inkscape:deskcolor="#505050"
     showgrid="false"
     inkscape:zoom="2.3909394"
     inkscape:cx="308.87441"
     inkscape:cy="139.69404"
     inkscape:window-width="3440"
     inkscape:window-height="1369"
     inkscape:window-x="-8"
     inkscape:window-y="-8"
     inkscape:window-maximized="1"
     inkscape:current-layer="svg249" />
  <rect
     x="46"
     y="71"
     width="625"
     height="156"
     fill="#3a3a3a"
     id="rect215"
     style="display:none" />
  <path
     d="M 46,36 671,0 V 71 L 46,70.4191 Z"
     fill="#ffffff"
     id="path217"
     style="display:inline" />
  <path
     d="M 46,47 671,23 V 71 H 46 Z"
     fill="#3a3a3a"
     id="path219"
     style="display:none" />
  <path
     d="m 46,227 h 625 v 46 L 46,255 Z"
     fill="#ffffff"
     id="path221"
     style="display:inline" />
  <path
     d="m 46,227 h 625 v 36 L 46,247 Z"
     fill="#3a3a3a"
     id="path223"
     style="display:none" />
  <path
     d="m 671,71 h 46 l -6,156 h -40 z"
     fill="#ffffff"
     id="path225"
     style="display:inline" />
  <path
     d="m 671,71 h 32 l -4,156 h -28 z"
     fill="#3a3a3a"
     id="path227"
     style="display:none" />
  <path
     d="M 12,71 H 46 V 227 H 12 Z"
     fill="#ffffff"
     id="path229"
     style="display:inline" />
  <path
     d="M 46,71 V 36 L 12,71 Z"
     fill="#ffffff"
     id="path233"
     style="display:inline" />
  <path
     d="M 46,71 V 47 L 18,71 Z"
     fill="#3a3a3a"
     id="path235"
     style="display:none" />
  <path
     d="M 671,71 V 0 l 46,71 z"
     fill="#ffffff"
     id="path237"
     style="display:inline" />
  <path
     d="M 671,71 V 23 l 32,48 z"
     fill="#3a3a3a"
     id="path239"
     style="display:inline" />
  <path
     d="M 46,227 H 12 l 34,28 z"
     fill="#ffffff"
     id="path241"
     style="display:inline" />
  <path
     d="M 46,227 H 18 l 28,20 z"
     fill="#3a3a3a"
     id="path243"
     style="display:inline" />
  <path
     d="m 671,227 h 40 l -40,46 z"
     fill="#ffffff"
     id="path245"
     style="display:inline" />
  <path
     d="m 671,227 h 28 l -28,36 z"
     fill="#3a3a3a"
     id="path247"
     style="display:inline" />
  <path
     style="fill:#ffffff;fill-opacity:1;stroke-width:32;stroke-linecap:square;stroke-linejoin:bevel"
     d="M 46,36 671,0 717,71 711,227 671,273 46,255 12,227 V 71 L 46,36"
     id="path639"
     sodipodi:nodetypes="ccccccccc" />
  <path
     d="M 18,71 46,47 671,23 703,71 699,227 671,263 46,247 18,227 Z"
     fill="#3a3a3a"
     id="path231"
     sodipodi:nodetypes="ccccccccc"
     style="display:inline" />
</svg>
