<svg width="230" height="230" viewBox="0 0 230 230" fill="none" xmlns="http://www.w3.org/2000/svg">
<path d="M119.816 4L122.492 23.9121L123.029 27.9111L127.024 27.3389L174.756 20.4932L190.413 51.4219L146.444 55.0137L142.188 55.3613L142.812 59.585L150.797 113.585L151.323 117.146L154.921 116.996L186.948 115.658C187.246 127.537 183.387 142.361 179.001 155.037C176.606 161.959 174.117 168.068 172.228 172.446C171.368 174.438 170.632 176.066 170.089 177.247C169.338 177.272 168.423 177.304 167.358 177.338C164.048 177.444 159.288 177.589 153.5 177.741C141.922 178.045 126.234 178.379 109.784 178.5L105.813 178.529V191.215H59.9414L61.1758 182.365L61.7832 178.013L57.3936 177.816C54.7499 177.698 52.2109 177.56 49.7979 177.407L38.2041 4H119.816Z" fill="#3A3A3A" stroke="#D0E92D" stroke-width="8"/>
<path d="M93.584 114.88L90.8828 68.1705L194.685 64L197 107.373L93.584 114.88Z" fill="#D0E92D"/>
<path d="M35.1055 183.273L59.5293 177.043V188.984L105.85 192.618V177.043L128.168 180.677L158.488 213.386L33 230L35.1055 183.273Z" fill="#D0E92D"/>
</svg>
