<svg width="230" height="230" viewBox="0 0 230 230" fill="none" xmlns="http://www.w3.org/2000/svg">
<path d="M155.994 138.553L161.077 187.489C149.387 184.688 125.805 178.79 124.991 177.603C124.178 176.417 120.587 159.314 118.893 150.911L155.994 138.553Z" fill="#5AD8CC"/>
<path d="M116.28 12.4365C145.857 5.2451 165.316 3.16076 177.401 4.28516C183.438 4.84679 187.264 6.17892 189.569 7.74707C191.721 9.21076 192.669 10.9479 192.927 12.9922C193.208 15.2248 192.689 18.133 191.176 21.7031C189.678 25.2346 187.33 29.1253 184.341 33.1943C178.363 41.331 170.115 49.7834 161.987 56.959L160.283 58.4639L160.704 60.6992L176.653 145.312L126.188 149.471L122.517 149.773V167.454L124.386 168.631L155.511 188.219L131.58 225.034L96.4648 210.519V176.954C96.6341 172.748 96.633 167.56 96.5908 163.452C96.5695 161.371 96.5374 159.55 96.5107 158.248C96.4974 157.597 96.4862 157.075 96.4775 156.716C96.4732 156.536 96.4692 156.397 96.4668 156.302C96.4656 156.255 96.4645 156.218 96.4639 156.193C96.4635 156.181 96.4631 156.171 96.4629 156.165V156.155L96.3477 151.931L92.1357 152.277L65.3516 154.484L62.4111 40.083C62.3538 37.8528 63.6465 35.1856 67.1006 32.1143C70.4969 29.0943 75.4249 26.2007 81.2061 23.5566C92.7337 18.2844 106.755 14.4064 116.145 12.4668L116.213 12.4531L116.28 12.4365Z" fill="#3A3A3A" stroke="#5AD8CC" stroke-width="8"/>
<path d="M99.0714 141.025C53.8379 143.496 41.3013 162.445 33 169.694C43.1648 195.398 110.422 225.386 133.124 230L99.0714 141.025Z" fill="#5AD8CC"/>
<path d="M187.5 117.142L113.573 112.758C109.907 117.232 104.294 120.095 98 120.095C86.9543 120.095 78 111.28 78 100.407C78.0002 89.5339 86.9544 80.7195 98 80.7195C104.899 80.7195 110.981 84.1585 114.576 89.3894L178.5 68.4148L187.5 117.142Z" fill="#5AD8CC"/>
</svg>
