<svg width="230" height="230" viewBox="0 0 230 230" fill="none" xmlns="http://www.w3.org/2000/svg">
<path d="M61.626 14.418C81.5252 4.97432 108.563 3.40636 124.285 4.16699C143.592 5.90417 155.134 15.0705 161.913 25.707C168.162 35.5104 170.439 46.7119 170.635 54.7744C168.246 56.091 166.554 57.6513 165.175 58.8887C163.344 60.532 162.107 61.5662 160.133 62.1719L157.102 63.1016L157.315 66.2656L161.512 128.395L106.88 133.922L102.985 134.315L103.295 138.218L104.742 156.44L104.855 157.865L105.846 158.896L123.25 177.004L117.453 200.678L81.293 175.085L77.8018 139.825L77.4111 135.882L73.4639 136.235L59.3916 137.496L53.1631 72.2285L52.8467 68.916L49.5312 68.624L46.665 68.3662C44.6303 68.1791 42.5938 67.9794 40.5527 67.7783C35.5696 53.3448 36.2526 42.5066 39.998 34.2979C43.9752 25.5818 51.7241 19.1172 61.626 14.418Z" fill="#3A3A3A" stroke="#D0E92D" stroke-width="8"/>
<path d="M169.988 48.2655C184.906 48.2655 197 60.8341 197 76.3383C197 91.8425 184.906 104.411 169.988 104.411C158.404 104.411 148.525 96.8325 144.687 86.1865L140.027 86.9551C139.157 101.643 127.422 113.276 113.07 113.276C98.1522 113.276 86.0586 100.708 86.0586 85.2034C86.0586 69.6992 98.1522 57.1306 113.07 57.1306C124.197 57.1306 133.75 64.1224 137.889 74.1086L143.2 72.7119C144.911 58.9207 156.252 48.2655 169.988 48.2655Z" fill="#D0E92D"/>
<path d="M41.2002 161.542L80.7531 157.602L82.6825 177.302L115 199.957L124.647 180.257L106.318 155.139L142.494 151.692L111.141 230L41.2002 161.542Z" fill="#D0E92D"/>
</svg>
